# xmcd CD database file
#
# Track frame offsets:
#	182
#	21687
#	35587
#	61172
#	80715
#	91167
#	105032
#	142380
#	172835
#	185900
#	199952
#	229270
#	243250
#	267072
#	288482
#	305047
#
# Disc length: 4143 seconds
#
# Revision: 0
# Processed by: cddbd v1.5.2PL0 Copyright (c) Steve Scherf et al.
# Submitted via: CDex 1.51
#
DISCID=e8102d10
DTITLE=Carme Mc Ray, Joe Williams, Claude Bolling, Thad Jones, Cat Anderson - Live At Midem 1979
DYEAR=1979
DGENRE=Jazz
TTITLE0=Bowling Green
TTITLE1=Suivez le Chef
TTITLE2=Body and Soul
TTITLE3=This Autumn
TTITLE4=Bye Bye Blackbird
TTITLE5=End Of Beautiful Friendship
TTITLE6=61st and Richard
TTITLE7=Black Bone
TTITLE8=Work Song
TTITLE9=Blues In My Heart
TTITLE10=Just The Way You Are
TTITLE11=It Don't Mean a Thing
TTITLE12=Jungle Trap
TTITLE13=Rock Rhythm
TTITLE14=Them There Eyes
TTITLE15=Far Jammers
EXTD=YEAR: 1979
EXTT0=
EXTT1=
EXTT2=
EXTT3=
EXTT4=
EXTT5=
EXTT6=
EXTT7=
EXTT8=
EXTT9=
EXTT10=
EXTT11=
EXTT12=
EXTT13=
EXTT14=
EXTT15=
PLAYORDER=
